<svg width="24" height="24" viewBox="0 0 24 24" fill="none" xmlns="http://www.w3.org/2000/svg">
<path d="M1.78127 5.40946C0.734346 4.36253 0.500023 3.17187 0.725013 2.27187C0.950003 1.37187 1.73751 0.621872 2.82501 0.621872C3.83108 0.621872 4.62319 1.31994 5.52794 2.11727C5.60116 2.1818 5.67513 2.24699 5.75 2.3125L7.75 4.0625C8.25 3.0625 9.4375 1.54688 11.4375 2.54688C12.4375 1.04688 14.5573 1.41672 16.2162 3.01305C17.4117 4.1635 17.8105 4.58222 18.1038 4.89014C18.2175 5.00948 18.3153 5.11218 18.4375 5.23438C18.875 5.67188 19.4062 6.49698 19.4062 7.14062C19.4062 7.33051 19.4111 7.59982 19.4166 7.9001C19.4296 8.61769 19.4459 9.5121 19.4062 9.92188C19.35 10.5031 18.8504 11.0439 18.3829 11.5114L18.2124 11.6849C19.0522 10.8911 20.3767 10.9053 21.1991 11.7277C22.0361 12.5647 22.0361 13.9216 21.1991 14.7585L16.7554 19.2023C15.9185 20.0392 14.5615 20.0392 13.7246 19.2023C12.8877 18.3653 12.8877 17.0084 13.7246 16.1715L13.9394 15.9567C13.6954 16.1746 13.4721 16.369 13.4122 16.408C13.1397 16.6941 12.4375 17.0781 11.7188 17.0781C11.6482 17.0781 11.5663 17.079 11.4747 17.08C10.6334 17.0893 8.98335 17.1075 7.96875 16.5156C7.0095 15.9561 6.37969 15.317 5.6047 14.5306C5.47079 14.3947 5.33253 14.2544 5.1875 14.1094C4.20312 13.125 3.84375 11.9219 4.03125 10.9844C4.21875 10.0469 5.28125 8.89062 5.28125 8.89062C5.28125 8.89062 2.82819 6.45639 1.78127 5.40946Z" fill="#F0F0F0"/>
<path d="M0.725013 2.27187C0.500023 3.17187 0.734346 4.36254 1.78127 5.40947C2.82819 6.45639 5.28125 8.89063 5.28125 8.89063C5.28125 8.89063 4.21875 10.0469 4.03125 10.9844C3.84375 11.9219 4.20312 13.125 5.1875 14.1094C5.33253 14.2544 5.47079 14.3947 5.6047 14.5306C6.37969 15.317 7.0095 15.9561 7.96875 16.5156C8.98335 17.1075 10.6334 17.0893 11.4747 17.08C11.5663 17.079 11.6482 17.0781 11.7188 17.0781C12.4375 17.0781 13.1397 16.6941 13.4122 16.408C13.4721 16.369 13.6954 16.1746 13.9394 15.9567L13.7246 16.1715C12.8877 17.0084 12.8877 18.3653 13.7246 19.2023C14.5615 20.0392 15.9185 20.0392 16.7554 19.2023L18.0588 17.8988C17.8767 17.7187 17.7042 17.6469 17.5625 17.75C16.9964 18.1617 16.4303 17.8107 15.7595 17.3947C15.6157 17.3055 15.467 17.2133 15.3125 17.125C14.8485 16.8599 14.7009 16.3312 14.5993 15.9675C14.5093 15.6453 14.4555 15.4526 14.25 15.6875C14.0445 15.9224 13.8749 15.9007 13.6646 15.8739C13.4273 15.8437 13.1382 15.8068 12.6875 16.125C11.625 16.875 9.1875 15.375 8 14.1875C6.91929 13.1068 7.40353 12.0439 7.85332 11.0983C8.02468 10.738 7.94436 10.3171 7.66401 10.0332C5.89416 8.24151 2.86872 5.18122 2 4.3125C1.28158 3.59409 1.18509 2.63977 1.26182 1.97392C1.28328 1.78767 1.22937 1.59734 1.11591 1.45949C0.931783 1.7004 0.798441 1.97815 0.725013 2.27187Z" fill="black" fill-opacity="0.1"/>
<path d="M18.1683 11.7277C19.0053 10.8908 20.3622 10.8908 21.1991 11.7277C22.0361 12.5647 22.0361 13.9216 21.1991 14.7585L16.7554 19.2023C15.9185 20.0392 14.5615 20.0392 13.7246 19.2023C12.8877 18.3653 12.8877 17.0084 13.7246 16.1715" stroke="black" stroke-linecap="round"/>
<path d="M5.28125 8.89062C5.28125 8.89062 2.82819 6.45639 1.78127 5.40946C0.734346 4.36254 0.500023 3.17187 0.725013 2.27187C0.950003 1.37187 1.73751 0.621872 2.82501 0.621872C3.91251 0.621872 4.75 1.4375 5.75 2.3125C6.75 3.1875 7.75 4.0625 7.75 4.0625M5.28125 8.89062C5.28125 8.89062 4.21875 10.0469 4.03125 10.9844C3.84375 11.9219 4.20312 13.125 5.1875 14.1094C6.17188 15.0938 6.84375 15.8594 7.96875 16.5156C9.09375 17.1719 11 17.0781 11.7188 17.0781C12.4375 17.0781 13.1397 16.6941 13.4122 16.408C13.5508 16.3179 14.5625 15.3969 14.684 15.2753M5.28125 8.89062L6.9375 10.5469M18.3829 11.5114C18.8504 11.0439 19.35 10.5031 19.4062 9.92188C19.4625 9.34063 19.4062 7.78427 19.4062 7.14062C19.4062 6.49698 18.875 5.67188 18.4375 5.23438C18 4.79688 17.875 4.60938 16.2162 3.01305C14.5573 1.41672 12.4375 1.04688 11.4375 2.54688M11.4375 2.54688C9.4375 1.54688 8.25 3.0625 7.75 4.0625M11.4375 2.54688L12.625 3.4375M7.75 4.0625L9.1875 5.3125" stroke="black" stroke-linecap="round"/>
<path d="M11.0625 6.92188L12.5625 8.42188" stroke="black" stroke-linecap="round"/>
<path d="M14.0625 5.10938L15.5625 6.60938" stroke="black" stroke-linecap="round"/>
</svg>
