<svg width="48" height="48" viewBox="0 0 48 48" fill="none" xmlns="http://www.w3.org/2000/svg">
<path d="M3.56254 10.8189C1.46869 8.72507 1.00005 6.34374 1.45003 4.54374C1.90001 2.74374 3.47502 1.24374 5.65002 1.24374C7.66217 1.24374 9.24637 2.63987 11.0559 4.23455C11.2023 4.36361 11.3503 4.49397 11.5 4.625L15.5 8.125C16.5 6.125 18.875 3.09375 22.875 5.09375C24.875 2.09375 29.1147 2.83343 32.4323 6.02609C34.8233 8.327 35.621 9.16444 36.2076 9.78028C36.435 10.019 36.6306 10.2244 36.875 10.4688C37.75 11.3438 38.8125 12.994 38.8125 14.2812C38.8125 14.661 38.8223 15.1996 38.8332 15.8002C38.8593 17.2354 38.8918 19.0242 38.8125 19.8438C38.7 21.0062 37.7008 22.0878 36.7658 23.0228L36.4248 23.3698C38.1045 21.7821 40.7535 21.8107 42.3983 23.4555C44.0721 25.1293 44.0721 27.8432 42.3983 29.517L33.5108 38.4045C31.8369 40.0784 29.123 40.0784 27.4492 38.4045C25.7753 36.7307 25.7753 34.0168 27.4492 32.343L27.8788 31.9133C27.3909 32.3492 26.9443 32.7381 26.8244 32.8159C26.2795 33.3882 24.875 34.1562 23.4375 34.1562C23.2964 34.1562 23.1325 34.1581 22.9494 34.1601C21.2668 34.1786 17.9667 34.215 15.9375 33.0312C14.019 31.9121 12.7594 30.634 11.2094 29.0612C10.9416 28.7894 10.6651 28.5088 10.375 28.2188C8.40625 26.25 7.6875 23.8438 8.0625 21.9688C8.4375 20.0938 10.5625 17.7812 10.5625 17.7812C10.5625 17.7812 5.65638 12.9128 3.56254 10.8189Z" fill="#F0F0F0"/>
<path d="M1.45003 4.54375C1.00005 6.34375 1.46869 8.72507 3.56254 10.8189C5.65638 12.9128 10.5625 17.7813 10.5625 17.7813C10.5625 17.7813 8.4375 20.0938 8.0625 21.9688C7.6875 23.8438 8.40625 26.25 10.375 28.2188C10.6651 28.5088 10.9416 28.7894 11.2094 29.0612C12.7594 30.634 14.019 31.9121 15.9375 33.0313C17.9667 34.215 21.2668 34.1786 22.9494 34.1601C23.1325 34.1581 23.2964 34.1563 23.4375 34.1563C24.875 34.1563 26.2795 33.3882 26.8244 32.8159C26.9443 32.7381 27.3909 32.3492 27.8788 31.9133L27.4492 32.343C25.7753 34.0168 25.7753 36.7307 27.4492 38.4045C29.123 40.0784 31.8369 40.0784 33.5108 38.4045L36.1177 35.7976C35.7533 35.4374 35.4084 35.2939 35.125 35.5C33.9928 36.3234 32.8606 35.6213 31.5191 34.7894C31.2314 34.611 30.934 34.4266 30.625 34.25C29.6971 33.7198 29.4017 32.6623 29.1986 31.935C29.0187 31.2906 28.911 30.9053 28.5 31.375C28.089 31.8447 27.7497 31.8015 27.3293 31.7479C26.8546 31.6874 26.2765 31.6137 25.375 32.25C23.25 33.75 18.375 30.75 16 28.375C13.8386 26.2136 14.8071 24.0879 15.7066 22.1965C16.0494 21.476 15.8887 20.6341 15.328 20.0665C11.7883 16.483 5.73744 10.3624 4 8.625C2.56316 7.18817 2.37017 5.27953 2.52364 3.94784C2.56657 3.57533 2.45874 3.19468 2.23183 2.91898C1.86357 3.4008 1.59688 3.9563 1.45003 4.54375Z" fill="black" fill-opacity="0.1"/>
<path d="M36.3367 23.4555C38.0105 21.7816 40.7244 21.7816 42.3983 23.4555C44.0721 25.1293 44.0721 27.8432 42.3983 29.517L33.5108 38.4045C31.8369 40.0784 29.123 40.0784 27.4492 38.4045C25.7753 36.7307 25.7753 34.0168 27.4492 32.343" stroke="black" stroke-width="2" stroke-linecap="round"/>
<path d="M10.5625 17.7812C10.5625 17.7812 5.65638 12.9128 3.56254 10.8189C1.46869 8.72507 1.00005 6.34374 1.45003 4.54374C1.90001 2.74374 3.47502 1.24374 5.65002 1.24374C7.82502 1.24374 9.5 2.875 11.5 4.625C13.5 6.375 15.5 8.125 15.5 8.125M10.5625 17.7812C10.5625 17.7812 8.4375 20.0938 8.0625 21.9688C7.6875 23.8438 8.40625 26.25 10.375 28.2188C12.3438 30.1875 13.6875 31.7188 15.9375 33.0312C18.1875 34.3438 22 34.1562 23.4375 34.1562C24.875 34.1562 26.2795 33.3882 26.8244 32.8159C27.1016 32.6359 29.125 30.7937 29.3681 30.5507M10.5625 17.7812L13.875 21.0938M36.7658 23.0228C37.7008 22.0878 38.7 21.0062 38.8125 19.8438C38.925 18.6813 38.8125 15.5685 38.8125 14.2812C38.8125 12.994 37.75 11.3438 36.875 10.4688C36 9.59375 35.75 9.21875 32.4323 6.02609C29.1147 2.83343 24.875 2.09375 22.875 5.09375M22.875 5.09375C18.875 3.09375 16.5 6.125 15.5 8.125M22.875 5.09375L25.25 6.875M15.5 8.125L18.375 10.625" stroke="black" stroke-width="2" stroke-linecap="round"/>
<path d="M22.125 13.8438L25.125 16.8438" stroke="black" stroke-width="2" stroke-linecap="round"/>
<path d="M28.125 10.2188L31.125 13.2188" stroke="black" stroke-width="2" stroke-linecap="round"/>
</svg>
